<svg width="521" height="133" viewBox="0 0 521 133" fill="none" xmlns="http://www.w3.org/2000/svg">
<rect x="3.22058" y="3.88647" width="124" height="124" rx="19.84" fill="url(#paint0_radial_299_1747)"/>
<g clip-path="url(#paint1_diamond_299_1747_clip_path)" data-figma-skip-parse="true"><g transform="matrix(0 -0.0584528 0.153481 0 63.4213 127.798)"><rect x="0" y="0" width="2162.28" height="431.84" fill="url(#paint1_diamond_299_1747)" opacity="1" shape-rendering="crispEdges"/><rect x="0" y="0" width="2162.28" height="431.84" transform="scale(1 -1)" fill="url(#paint1_diamond_299_1747)" opacity="1" shape-rendering="crispEdges"/><rect x="0" y="0" width="2162.28" height="431.84" transform="scale(-1 1)" fill="url(#paint1_diamond_299_1747)" opacity="1" shape-rendering="crispEdges"/><rect x="0" y="0" width="2162.28" height="431.84" transform="scale(-1)" fill="url(#paint1_diamond_299_1747)" opacity="1" shape-rendering="crispEdges"/></g></g><rect x="3.22058" y="3.88647" width="124" height="124" rx="19.84" data-figma-gradient-fill="{&#34;type&#34;:&#34;GRADIENT_DIAMOND&#34;,&#34;stops&#34;:[{&#34;color&#34;:{&#34;r&#34;:0.79311889410018921,&#34;g&#34;:1.0,&#34;b&#34;:0.54026442766189575,&#34;a&#34;:1.0},&#34;position&#34;:0.0},{&#34;color&#34;:{&#34;r&#34;:0.34117648005485535,&#34;g&#34;:0.53725492954254150,&#34;b&#34;:0.062745101749897003,&#34;a&#34;:0.0},&#34;position&#34;:1.0}],&#34;stopsVar&#34;:[{&#34;color&#34;:{&#34;r&#34;:0.79311889410018921,&#34;g&#34;:1.0,&#34;b&#34;:0.54026442766189575,&#34;a&#34;:1.0},&#34;position&#34;:0.0},{&#34;color&#34;:{&#34;r&#34;:0.34117648005485535,&#34;g&#34;:0.53725492954254150,&#34;b&#34;:0.062745101749897003,&#34;a&#34;:0.0},&#34;position&#34;:1.0}],&#34;transform&#34;:{&#34;m00&#34;:5.0700667622582962e-12,&#34;m01&#34;:306.96224975585938,&#34;m02&#34;:-90.059822082519531,&#34;m10&#34;:-116.90550231933594,&#34;m11&#34;:7.9002238778658196e-12,&#34;m12&#34;:186.25028991699219},&#34;opacity&#34;:1.0,&#34;blendMode&#34;:&#34;NORMAL&#34;,&#34;visible&#34;:true}"/>
<rect x="4.46058" y="5.12647" width="121.52" height="121.52" rx="18.6" stroke="white" stroke-opacity="0.22" stroke-width="2.48"/>
<g filter="url(#filter0_d_299_1747)">
<path d="M66.1544 22.7197C90.1427 22.7197 109.59 42.166 109.59 66.1543C109.59 90.1427 90.1428 109.59 66.1544 109.59C42.1661 109.59 22.7198 90.1426 22.7198 66.1543C22.72 42.1661 42.1662 22.7199 66.1544 22.7197ZM66.1544 29.4023C45.8567 29.4025 29.4026 45.8567 29.4024 66.1543C29.4024 86.4521 45.8566 102.907 66.1544 102.907C86.4523 102.907 102.907 86.4522 102.907 66.1543C102.907 57.1268 99.6502 48.8615 94.2501 42.4639L85.501 51.2129C88.8625 55.393 90.8751 60.7038 90.8751 66.4854C90.8749 79.9556 79.9556 90.8748 66.4854 90.875C53.0151 90.875 42.0949 79.9557 42.0948 66.4854C42.0948 53.0149 53.015 42.0947 66.4854 42.0947C71.7638 42.0948 76.6501 43.7722 80.6417 46.6221L89.4971 37.7666C83.1492 32.5409 75.0184 29.4023 66.1544 29.4023ZM55.9766 80.7373C58.9162 82.9083 62.5506 84.1934 66.4854 84.1934C76.2651 84.1932 84.1933 76.265 84.1934 66.4854C84.1934 62.5505 82.9084 58.9162 80.7374 55.9766L55.9766 80.7373ZM66.4854 48.7773C56.7055 48.7773 48.7774 56.7055 48.7774 66.4854C48.7775 69.9135 49.7519 73.1138 51.4385 75.8252L75.8253 51.4385C73.1139 49.7518 69.9136 48.7774 66.4854 48.7773Z" fill="white"/>
</g>
<g opacity="0.7" filter="url(#filter1_f_299_1747)">
<path d="M119.013 11.4989C126.854 18.5636 119.013 38.5229 119.013 38.5229C114.871 20.3192 109.997 13.749 94.6625 11.4989C94.6625 11.4989 111.949 5.1331 119.013 11.4989Z" fill="white"/>
</g>
<g opacity="0.3" filter="url(#filter2_f_299_1747)">
<path d="M12.8355 11.4989C4.99532 18.5636 12.8355 38.5229 12.8355 38.5229C16.9777 20.3192 21.8516 13.749 37.1864 11.4989C37.1864 11.4989 19.9001 5.1331 12.8355 11.4989Z" fill="white"/>
</g>
<path d="M509.62 67.3742C509.62 65.8382 509.396 64.3982 508.948 63.0542C508.532 61.6782 507.892 60.4782 507.028 59.4542C506.164 58.4302 505.06 57.6302 503.716 57.0542C502.404 56.4462 500.868 56.1422 499.108 56.1422C495.684 56.1422 492.98 57.1182 490.996 59.0702C489.044 61.0222 487.796 63.7902 487.252 67.3742H509.62ZM487.012 74.5262C487.204 77.0542 487.652 79.2462 488.356 81.1022C489.06 82.9262 489.988 84.4462 491.14 85.6622C492.292 86.8462 493.652 87.7422 495.22 88.3502C496.82 88.9262 498.58 89.2142 500.5 89.2142C502.42 89.2142 504.068 88.9902 505.444 88.5422C506.852 88.0942 508.068 87.5982 509.092 87.0542C510.148 86.5102 511.06 86.0142 511.828 85.5662C512.628 85.1182 513.396 84.8942 514.132 84.8942C515.124 84.8942 515.86 85.2622 516.34 85.9982L519.748 90.3182C518.436 91.8542 516.964 93.1502 515.332 94.2062C513.7 95.2302 511.988 96.0622 510.196 96.7022C508.436 97.3102 506.628 97.7422 504.772 97.9982C502.948 98.2542 501.172 98.3822 499.444 98.3822C496.02 98.3822 492.836 97.8222 489.892 96.7022C486.948 95.5502 484.388 93.8702 482.212 91.6622C480.036 89.4222 478.324 86.6702 477.076 83.4062C475.828 80.1102 475.204 76.3022 475.204 71.9822C475.204 68.6222 475.748 65.4702 476.836 62.5262C477.924 59.5502 479.476 56.9742 481.492 54.7982C483.54 52.5902 486.02 50.8462 488.932 49.5662C491.876 48.2862 495.188 47.6462 498.868 47.6462C501.972 47.6462 504.836 48.1422 507.46 49.1342C510.084 50.1262 512.34 51.5822 514.228 53.5022C516.116 55.3902 517.588 57.7262 518.644 60.5102C519.732 63.2622 520.276 66.4142 520.276 69.9662C520.276 71.7582 520.084 72.9742 519.7 73.6142C519.316 74.2222 518.58 74.5262 517.492 74.5262H487.012Z" fill="#3B5F0A"/>
<path d="M458.964 98.4303C454.676 98.4303 451.38 97.2303 449.076 94.8303C446.804 92.3983 445.668 89.0543 445.668 84.7983V57.2943H440.628C439.988 57.2943 439.444 57.0863 438.996 56.6703C438.548 56.2543 438.324 55.6303 438.324 54.7983V50.0943L446.244 48.7983L448.74 35.3583C448.9 34.7183 449.204 34.2223 449.652 33.8703C450.1 33.5183 450.676 33.3423 451.38 33.3423H457.524V48.8463H470.676V57.2943H457.524V83.9823C457.524 85.5183 457.892 86.7183 458.628 87.5823C459.396 88.4463 460.436 88.8783 461.748 88.8783C462.484 88.8783 463.092 88.7983 463.572 88.6383C464.084 88.4463 464.516 88.2543 464.868 88.0623C465.252 87.8703 465.588 87.6943 465.876 87.5343C466.164 87.3423 466.452 87.2463 466.74 87.2463C467.092 87.2463 467.38 87.3423 467.604 87.5343C467.828 87.6943 468.068 87.9503 468.324 88.3023L471.876 94.0623C470.148 95.5023 468.164 96.5903 465.924 97.3263C463.684 98.0623 461.364 98.4303 458.964 98.4303Z" fill="#3B5F0A"/>
<path d="M410.153 47.6462C413.801 47.6462 417.113 48.2382 420.089 49.4222C423.097 50.6062 425.657 52.2862 427.769 54.4622C429.913 56.6382 431.561 59.2942 432.713 62.4302C433.865 65.5662 434.441 69.0702 434.441 72.9422C434.441 76.8462 433.865 80.3662 432.713 83.5022C431.561 86.6382 429.913 89.3102 427.769 91.5182C425.657 93.7262 423.097 95.4222 420.089 96.6062C417.113 97.7902 413.801 98.3822 410.153 98.3822C406.473 98.3822 403.129 97.7902 400.121 96.6062C397.113 95.4222 394.537 93.7262 392.393 91.5182C390.281 89.3102 388.633 86.6382 387.449 83.5022C386.297 80.3662 385.721 76.8462 385.721 72.9422C385.721 69.0702 386.297 65.5662 387.449 62.4302C388.633 59.2942 390.281 56.6382 392.393 54.4622C394.537 52.2862 397.113 50.6062 400.121 49.4222C403.129 48.2382 406.473 47.6462 410.153 47.6462ZM410.153 89.2622C414.249 89.2622 417.273 87.8862 419.225 85.1342C421.209 82.3822 422.201 78.3502 422.201 73.0382C422.201 67.7262 421.209 63.6782 419.225 60.8942C417.273 58.1102 414.249 56.7182 410.153 56.7182C405.993 56.7182 402.905 58.1262 400.889 60.9422C398.905 63.7262 397.913 67.7582 397.913 73.0382C397.913 78.3182 398.905 82.3502 400.889 85.1342C402.905 87.8862 405.993 89.2622 410.153 89.2622Z" fill="#3B5F0A"/>
<path d="M345.261 54.4622C346.253 53.4702 347.293 52.5582 348.381 51.7262C349.501 50.8622 350.669 50.1422 351.885 49.5662C353.133 48.9582 354.461 48.4942 355.869 48.1742C357.277 47.8222 358.813 47.6462 360.477 47.6462C363.165 47.6462 365.549 48.1102 367.629 49.0382C369.709 49.9342 371.437 51.2142 372.813 52.8782C374.221 54.5102 375.277 56.4782 375.981 58.7822C376.717 61.0542 377.085 63.5662 377.085 66.3182V97.6622H365.229V66.3182C365.229 63.3102 364.541 60.9902 363.165 59.3582C361.789 57.6942 359.693 56.8622 356.877 56.8622C354.829 56.8622 352.909 57.3262 351.117 58.2542C349.325 59.1822 347.629 60.4462 346.029 62.0462V97.6622H334.173V48.4142H341.421C342.957 48.4142 343.965 49.1342 344.445 50.5742L345.261 54.4622Z" fill="#3B5F0A"/>
<path d="M311.439 76.6384C308.015 76.7984 305.135 77.1024 302.799 77.5504C300.463 77.9664 298.591 78.5104 297.183 79.1824C295.775 79.8544 294.767 80.6384 294.159 81.5344C293.551 82.4304 293.247 83.4064 293.247 84.4624C293.247 86.5424 293.855 88.0304 295.071 88.9264C296.319 89.8224 297.935 90.2704 299.919 90.2704C302.351 90.2704 304.447 89.8384 306.207 88.9744C307.999 88.0784 309.743 86.7344 311.439 84.9424V76.6384ZM284.271 55.2784C289.935 50.0944 296.751 47.5024 304.719 47.5024C307.599 47.5024 310.175 47.9824 312.447 48.9424C314.719 49.8704 316.639 51.1824 318.207 52.8784C319.775 54.5424 320.959 56.5424 321.759 58.8784C322.591 61.2144 323.007 63.7744 323.007 66.5584V97.6624H317.631C316.511 97.6624 315.647 97.5024 315.039 97.1824C314.431 96.8304 313.951 96.1424 313.599 95.1184L312.543 91.5664C311.295 92.6864 310.079 93.6784 308.895 94.5424C307.711 95.3744 306.479 96.0784 305.199 96.6544C303.919 97.2304 302.543 97.6624 301.071 97.9504C299.631 98.2704 298.031 98.4304 296.271 98.4304C294.191 98.4304 292.271 98.1584 290.511 97.6144C288.751 97.0384 287.231 96.1904 285.951 95.0704C284.671 93.9504 283.679 92.5584 282.975 90.8944C282.271 89.2304 281.919 87.2944 281.919 85.0864C281.919 83.8384 282.127 82.6064 282.543 81.3904C282.959 80.1424 283.631 78.9584 284.559 77.8384C285.519 76.7184 286.751 75.6624 288.255 74.6704C289.759 73.6784 291.599 72.8144 293.775 72.0784C295.983 71.3424 298.543 70.7504 301.455 70.3024C304.367 69.8224 307.695 69.5344 311.439 69.4384V66.5584C311.439 63.2624 310.735 60.8304 309.327 59.2624C307.919 57.6624 305.887 56.8624 303.231 56.8624C301.311 56.8624 299.711 57.0864 298.431 57.5344C297.183 57.9824 296.079 58.4944 295.119 59.0704C294.159 59.6144 293.279 60.1104 292.479 60.5584C291.711 61.0064 290.847 61.2304 289.887 61.2304C289.055 61.2304 288.351 61.0224 287.775 60.6064C287.199 60.1584 286.735 59.6464 286.383 59.0704L284.271 55.2784Z" fill="#3B5F0A"/>
<path d="M204.986 97.6622V48.4142H212.234C213.77 48.4142 214.778 49.1342 215.258 50.5742L216.026 54.2222C216.89 53.2622 217.786 52.3822 218.714 51.5822C219.674 50.7822 220.682 50.0942 221.738 49.5182C222.826 48.9422 223.978 48.4942 225.194 48.1742C226.442 47.8222 227.802 47.6462 229.274 47.6462C232.378 47.6462 234.922 48.4942 236.906 50.1902C238.922 51.8542 240.426 54.0782 241.418 56.8622C242.186 55.2302 243.146 53.8382 244.298 52.6862C245.45 51.5022 246.714 50.5422 248.09 49.8062C249.466 49.0702 250.922 48.5262 252.458 48.1742C254.026 47.8222 255.594 47.6462 257.162 47.6462C259.882 47.6462 262.298 48.0622 264.41 48.8942C266.522 49.7262 268.298 50.9422 269.738 52.5422C271.178 54.1422 272.266 56.0942 273.002 58.3982C273.77 60.7022 274.154 63.3422 274.154 66.3182V97.6622H262.298V66.3182C262.298 63.1822 261.61 60.8302 260.234 59.2622C258.858 57.6622 256.842 56.8622 254.186 56.8622C252.97 56.8622 251.834 57.0702 250.778 57.4862C249.754 57.9022 248.842 58.5102 248.042 59.3102C247.274 60.0782 246.666 61.0542 246.218 62.2382C245.77 63.4222 245.546 64.7822 245.546 66.3182V97.6622H233.642V66.3182C233.642 63.0222 232.97 60.6222 231.626 59.1182C230.314 57.6142 228.378 56.8622 225.818 56.8622C224.09 56.8622 222.474 57.2942 220.97 58.1582C219.498 58.9902 218.122 60.1422 216.842 61.6142V97.6622H204.986Z" fill="#3B5F0A"/>
<path d="M171.653 47.6462C175.301 47.6462 178.613 48.2382 181.589 49.4222C184.597 50.6062 187.157 52.2862 189.269 54.4622C191.413 56.6382 193.061 59.2942 194.213 62.4302C195.365 65.5662 195.941 69.0702 195.941 72.9422C195.941 76.8462 195.365 80.3662 194.213 83.5022C193.061 86.6382 191.413 89.3102 189.269 91.5182C187.157 93.7262 184.597 95.4222 181.589 96.6062C178.613 97.7902 175.301 98.3822 171.653 98.3822C167.973 98.3822 164.629 97.7902 161.621 96.6062C158.613 95.4222 156.037 93.7262 153.893 91.5182C151.781 89.3102 150.133 86.6382 148.949 83.5022C147.797 80.3662 147.221 76.8462 147.221 72.9422C147.221 69.0702 147.797 65.5662 148.949 62.4302C150.133 59.2942 151.781 56.6382 153.893 54.4622C156.037 52.2862 158.613 50.6062 161.621 49.4222C164.629 48.2382 167.973 47.6462 171.653 47.6462ZM171.653 89.2622C175.749 89.2622 178.773 87.8862 180.725 85.1342C182.709 82.3822 183.701 78.3502 183.701 73.0382C183.701 67.7262 182.709 63.6782 180.725 60.8942C178.773 58.1102 175.749 56.7182 171.653 56.7182C167.493 56.7182 164.405 58.1262 162.389 60.9422C160.405 63.7262 159.413 67.7582 159.413 73.0382C159.413 78.3182 160.405 82.3502 162.389 85.1342C164.405 87.8862 167.493 89.2622 171.653 89.2622Z" fill="#3B5F0A"/>
<defs>
<clipPath id="paint1_diamond_299_1747_clip_path"><rect x="3.22058" y="3.88647" width="124" height="124" rx="19.84"/></clipPath><filter id="filter0_d_299_1747" x="-5.72205e-06" y="-6.67572e-05" width="132.31" height="132.309" filterUnits="userSpaceOnUse" color-interpolation-filters="sRGB">
<feFlood flood-opacity="0" result="BackgroundImageFix"/>
<feColorMatrix in="SourceAlpha" type="matrix" values="0 0 0 0 0 0 0 0 0 0 0 0 0 0 0 0 0 0 127 0" result="hardAlpha"/>
<feOffset/>
<feGaussianBlur stdDeviation="11.3599"/>
<feComposite in2="hardAlpha" operator="out"/>
<feColorMatrix type="matrix" values="0 0 0 0 0.251622 0 0 0 0 0.380202 0 0 0 0 0.069467 0 0 0 0.3 0"/>
<feBlend mode="normal" in2="BackgroundImageFix" result="effect1_dropShadow_299_1747"/>
<feBlend mode="normal" in="SourceGraphic" in2="effect1_dropShadow_299_1747" result="shape"/>
</filter>
<filter id="filter1_f_299_1747" x="86.8688" y="0.875978" width="43.4228" height="45.4407" filterUnits="userSpaceOnUse" color-interpolation-filters="sRGB">
<feFlood flood-opacity="0" result="BackgroundImageFix"/>
<feBlend mode="normal" in="SourceGraphic" in2="BackgroundImageFix" result="shape"/>
<feGaussianBlur stdDeviation="3.89685" result="effect1_foregroundBlur_299_1747"/>
</filter>
<filter id="filter2_f_299_1747" x="1.55725" y="0.875978" width="43.4228" height="45.4407" filterUnits="userSpaceOnUse" color-interpolation-filters="sRGB">
<feFlood flood-opacity="0" result="BackgroundImageFix"/>
<feBlend mode="normal" in="SourceGraphic" in2="BackgroundImageFix" result="shape"/>
<feGaussianBlur stdDeviation="3.89685" result="effect1_foregroundBlur_299_1747"/>
</filter>
<radialGradient id="paint0_radial_299_1747" cx="0" cy="0" r="1" gradientUnits="userSpaceOnUse" gradientTransform="translate(65.2206 127.886) rotate(-90) scale(124 131.161)">
<stop stop-color="#578910"/>
<stop offset="0.5" stop-color="#578910"/>
<stop offset="1" stop-color="#D9EBC0"/>
</radialGradient>
<linearGradient id="paint1_diamond_299_1747" x1="0" y1="0" x2="500" y2="500" gradientUnits="userSpaceOnUse">
<stop stop-color="#CAFF8A"/>
<stop offset="1" stop-color="#578910" stop-opacity="0"/>
</linearGradient>
</defs>
</svg>
